<?xml version="1.0" encoding="utf-8"?>
<!-- Generator: Adobe Illustrator 17.0.0, SVG Export Plug-In . SVG Version: 6.00 Build 0)  -->
<!DOCTYPE svg PUBLIC "-//W3C//DTD SVG 1.1//EN" "http://www.w3.org/Graphics/SVG/1.1/DTD/svg11.dtd">
<svg version="1.1" id="Layer_1" xmlns="http://www.w3.org/2000/svg" xmlns:xlink="http://www.w3.org/1999/xlink" x="0px" y="0px"
	 width="244.792px" height="50.083px" viewBox="0 0 244.792 50.083" enable-background="new 0 0 244.792 50.083"
	 xml:space="preserve">
<g>
	<g>
		<path fill="#FBAD18" d="M97.708,25.746c0,1.845-1.168,3.346-3,3.346c-1.831,0-3-1.501-3-3.346V10.041h-4v15.705
			c0,3.676,3.337,6.667,7,6.667c3.663,0,7-2.991,7-6.667V10.041h-4V25.746z"/>
		<path fill="#FBAD18" d="M168.208,10.074c-3.663,0-6.5,2.991-6.5,6.667v2.3h-3v4h3v9h3v-9h7v9h3v-15.3
			C174.708,13.065,171.871,10.074,168.208,10.074z M171.708,19.041h-7v-2.3c0-1.845,1.668-3.346,3.5-3.346s3.5,1.501,3.5,3.346
			V19.041z"/>
		<path fill="#FBAD18" d="M121.286,7.422c-2.518,0-4.578,1.997-4.578,4.515v1.459v5.535v5.178l-6.791-14.068h-3.209v22h3V18.537
			l7.035,13.505h2.965v-13.11v-5.535v-1.459c0-0.687,0.73-1.194,1.417-1.194c0.687,0,1.417,0.298,1.417,1.298h3.322
			C125.864,10.041,123.804,7.422,121.286,7.422z"/>
		<path fill="#FBAD18" d="M150.045,20.482c0.95-1.081,1.529-2.661,1.529-4.221c0-3.344-2.698-6.22-6.015-6.22h-7.85v22h4v-18h3.85
			c1.486,0,2.694,0.963,2.694,2.476c0,1.513-1.234,2.524-2.694,2.524h-2.85v4h2.85c0.548,0,1.095-0.154,1.607,0.041
			c0.124,0.048,0.246-0.029,0.369,0.021c3.776,1.524,6.215,5.08,6.215,9.152c0,5.475-4.454,9.819-9.93,9.819
			c-5.475,0-9.93-4.032-9.93-10.032h-3.322c0,7,5.944,13.321,13.251,13.321c7.307,0,13.251-5.909,13.251-13.215
			C157.071,27.185,154.355,22.768,150.045,20.482z"/>
		<polygon fill="#FBAD18" points="238.118,10.041 234.797,10.041 228.708,10.041 228.708,13.041 234.708,13.041 234.708,32.041 
			237.708,32.041 237.708,13.041 243.708,13.041 243.708,10.041 		"/>
		<polygon fill="#FBAD18" points="213.708,32.041 224.708,32.041 224.708,29.041 216.708,29.041 216.708,22.041 222.708,22.041 
			222.708,19.041 216.708,19.041 216.708,13.041 224.708,13.041 224.708,10.041 213.708,10.041 		"/>
		<path fill="#FBAD18" d="M82.268,24.152c-0.892-1.044-1.96-1.881-3.097-2.624c-0.79-0.516-1.613-0.987-2.432-1.451
			c-1.595-0.903-4.24-2.246-3.895-4.498c0.233-1.52,1.899-2.582,3.331-2.423c1.684,0.187,3.253,1.776,3.794,3.346l3.14-1.082
			c-1.002-2.909-3.809-5.256-6.673-5.581c-3.179-0.361-6.393,2.087-6.875,5.238c-0.942,6.157,6.674,7.458,9.959,10.981
			c1.464,1.57,2.294,2.81,2.506,4.949c0.264,2.667-0.527,5.277-2.226,7.35c-1.699,2.072-4.104,3.359-6.771,3.623
			c-2.661,0.262-5.277-0.527-7.35-2.226c-2.072-1.699-3.353-4.127-3.617-6.794c0,0-0.077,0.082-0.1-0.918h-3.2
			c0,0-0.097,0.494-0.011,1.18c0.351,3.55,2.064,6.794,4.822,9.056c2.708,2.221,6.106,3.298,9.588,3.003
			c0.064-0.005,0.13,0,0.194-0.006c3.55-0.351,6.751-2.059,9.013-4.817c2.262-2.758,3.314-6.23,2.963-9.78
			C85.061,27.962,84.038,26.224,82.268,24.152z"/>
		<polygon fill="#FBAD18" points="202.193,19.939 209.6,10.497 205.554,10.497 199.929,17.657 199.929,10.497 196.619,10.497 
			196.619,32.016 199.929,32.016 199.929,22.714 200,22.697 206.158,31.999 210.111,31.999 		"/>
		<path fill="#FBAD18" d="M187.959,20.51c-0.689-0.436-1.371-0.882-2.066-1.309c-1.026-0.631-2.253-1.23-2.76-2.411
			c-0.458-1.067,0.224-2.451,1.175-2.936c1.995-1.018,3.843,1.102,4.592,2.74l0.014,0.032l2.922-1.42l-0.014-0.031
			c-1.117-2.472-3.527-4.967-6.387-4.967c-0.124,0-0.249,0.005-0.372,0.014c-2.888,0.212-5.012,2.373-5.285,5.378
			c-0.203,2.222,0.813,4.192,2.787,5.406c3.347,2.127,3.683,2.34,3.724,2.366c0.971,0.607,2.084,1.43,2.342,2.627
			c0.259,1.204-0.79,2.5-1.918,2.848c-1.196,0.37-2.436-0.126-3.316-0.959c-0.508-0.482-1.015-1.103-1.352-1.721l-0.017-0.031
			l-2.821,1.625l0.016,0.03c1.515,2.827,4.003,4.515,6.655,4.515c0.645,0,1.262-0.101,1.837-0.3c2.002-0.694,4.1-2.762,4.234-5.37
			C192.129,23.119,188.99,21.155,187.959,20.51z"/>
	</g>
	<g>
		<path fill="#FBAD18" d="M10.468,19.973c0.051-0.282,0.296-0.486,0.582-0.486h3.078c0.288,0,0.534,0.208,0.583,0.492l1.744,10.132
			c0.325-0.033,0.651-0.063,0.978-0.092v-5.472c0-0.006,0.002-0.011,0.002-0.017c0.001-0.022,0.004-0.043,0.007-0.064
			c0.002-0.018,0.004-0.035,0.008-0.053c0.004-0.019,0.011-0.037,0.017-0.055c0.006-0.019,0.012-0.037,0.021-0.055
			c0.007-0.016,0.016-0.031,0.025-0.046c0.011-0.019,0.022-0.038,0.034-0.056c0.003-0.005,0.005-0.01,0.009-0.014l3.468-4.522
			c0.112-0.146,0.285-0.232,0.469-0.232h8.474c0.029,0,0.056,0.004,0.084,0.008c0.022,0.004,0.044,0.008,0.066,0.013
			c0.031,0.008,0.061,0.018,0.09,0.03c0.014,0.007,0.027,0.015,0.041,0.023c0.025,0.014,0.05,0.029,0.072,0.046
			c0.012,0.009,0.024,0.019,0.036,0.029c0.023,0.02,0.044,0.043,0.064,0.066c0.006,0.007,0.013,0.013,0.019,0.02l3.411,4.522
			c0.003,0.004,0.005,0.009,0.008,0.012c0.013,0.018,0.024,0.037,0.035,0.057c0.008,0.015,0.017,0.029,0.024,0.045
			c0.008,0.018,0.014,0.037,0.02,0.056c0.006,0.018,0.013,0.036,0.017,0.055c0.004,0.017,0.005,0.035,0.008,0.053
			c0.003,0.021,0.006,0.042,0.007,0.064c0,0.005,0.001,0.01,0.001,0.015v5.766c0.73,0.093,1.454,0.195,2.171,0.309v-8.336
			c0-0.008,0.002-0.015,0.003-0.023v-0.964c0-0.924,0.752-1.675,1.675-1.675c0.924,0,1.676,0.752,1.676,1.675v0.967
			c0,0.007,0.002,0.013,0.002,0.02v8.955c2.551,0.536,5.002,1.21,7.325,2.012c0.987-2.626,1.531-5.47,1.531-8.442
			c0-13.259-10.749-24.008-24.008-24.008S0.335,11.552,0.335,24.81c0,2.973,0.544,5.817,1.532,8.445
			c2.081-0.719,4.26-1.341,6.528-1.847L10.468,19.973z M11.833,17.565c-0.982-0.112-1.88-0.5-2.616-1.084l2.616-2.616V17.565z
			 M13.016,17.565v-3.7l2.616,2.616C14.896,17.065,13.999,17.453,13.016,17.565z M16.469,15.644l-2.616-2.616h3.701
			C17.441,14.011,17.053,14.908,16.469,15.644z M17.553,11.845h-3.7l2.616-2.616C17.053,9.965,17.441,10.862,17.553,11.845z
			 M13.016,7.308c0.983,0.112,1.88,0.5,2.616,1.084l-2.616,2.616V7.308z M13.262,12.437c0,0.463-0.375,0.838-0.838,0.838
			c-0.463,0-0.838-0.375-0.838-0.838c0-0.463,0.375-0.838,0.838-0.838C12.887,11.599,13.262,11.974,13.262,12.437z M11.833,7.308
			v3.7L9.217,8.393C9.953,7.809,10.851,7.42,11.833,7.308z M8.381,9.229l2.616,2.616H7.296C7.408,10.862,7.796,9.965,8.381,9.229z
			 M7.296,13.028h3.701l-2.616,2.616C7.796,14.908,7.408,14.011,7.296,13.028z"/>
		<path fill="#DC8F27" d="M43.152,33.538c0.686,0.487,1.408,1.042,2.162,1.638c0.16,0.131,0.323,0.264,0.487,0.399
			c0.203-0.404,0.397-0.813,0.577-1.229c-1.191-0.409-2.422-0.785-3.692-1.128C42.839,33.319,42.994,33.424,43.152,33.538z"/>
		<path fill="#FFDBA2" d="M22.03,48.705c-0.228-0.288-0.456-0.577-0.69-0.873c-0.336-0.385-0.667-0.784-1.02-1.173
			c-0.363-0.38-0.713-0.779-1.098-1.152c-0.385-0.373-0.758-0.761-1.165-1.12l-0.601-0.548c-0.202-0.18-0.413-0.353-0.619-0.53
			c-0.823-0.709-1.689-1.366-2.549-1.999c-0.87-0.619-1.739-1.211-2.606-1.743c-0.859-0.543-1.717-1.023-2.532-1.472
			c-0.822-0.437-1.604-0.84-2.34-1.183c-1.466-0.697-2.72-1.198-3.6-1.526c-0.192-0.071-0.363-0.133-0.518-0.187
			C6.249,42.596,13.487,47.888,22.03,48.705z"/>
		<path fill="#FDBC4D" d="M35.726,45.75c-0.306-0.413-0.607-0.84-0.93-1.257c-0.334-0.409-0.654-0.837-1.009-1.243
			c-0.356-0.405-0.699-0.824-1.078-1.217l-0.558-0.598c-0.189-0.198-0.385-0.388-0.578-0.582c-0.767-0.778-1.582-1.507-2.392-2.213
			c-0.822-0.693-1.644-1.358-2.469-1.963c-0.816-0.616-1.636-1.169-2.415-1.688c-0.787-0.507-1.538-0.977-2.246-1.383
			c-1.41-0.823-2.625-1.432-3.48-1.836c-0.428-0.202-0.766-0.351-0.994-0.449c-0.117-0.049-0.204-0.085-0.263-0.109
			c-1.98,0.184-3.911,0.446-5.784,0.777c0.867,0.432,2.024,1.045,3.347,1.845c0.723,0.43,1.487,0.925,2.287,1.459
			c0.792,0.546,1.624,1.127,2.451,1.771c0.835,0.634,1.667,1.329,2.496,2.052c0.818,0.736,1.639,1.494,2.411,2.302
			c0.193,0.202,0.391,0.398,0.58,0.603l0.56,0.619c0.38,0.406,0.725,0.84,1.08,1.258c0.355,0.418,0.675,0.861,1.008,1.283
			c0.322,0.43,0.621,0.87,0.925,1.293c0.29,0.434,0.563,0.869,0.837,1.29c0.085,0.145,0.168,0.287,0.251,0.43
			c2.144-0.495,4.181-1.271,6.063-2.298C35.792,45.848,35.76,45.8,35.726,45.75z"/>
		<path fill="#FBAD18" d="M40.799,41.583c-0.179-0.206-0.367-0.405-0.55-0.608c-0.73-0.813-1.511-1.579-2.287-2.321
			c-0.789-0.73-1.58-1.432-2.375-2.075c-0.787-0.653-1.581-1.243-2.335-1.798c-0.763-0.543-1.491-1.047-2.179-1.485
			c-1.371-0.887-2.556-1.552-3.391-1.994c-0.281-0.148-0.518-0.27-0.715-0.367c-0.867-0.03-1.741-0.046-2.623-0.046
			c-1.25,0-2.485,0.032-3.707,0.091c0.653,0.378,1.395,0.827,2.201,1.352c0.707,0.454,1.454,0.976,2.235,1.537
			c0.773,0.573,1.585,1.181,2.389,1.855c0.812,0.662,1.62,1.385,2.424,2.136c0.793,0.763,1.587,1.549,2.33,2.383
			c0.186,0.208,0.377,0.412,0.559,0.623l0.538,0.639c0.366,0.419,0.695,0.865,1.036,1.295c0.34,0.43,0.645,0.883,0.963,1.316
			c0.308,0.441,0.592,0.89,0.881,1.324c0.038,0.061,0.074,0.123,0.111,0.184c1.761-1.014,3.381-2.242,4.823-3.653L40.799,41.583z"/>
		<path fill="#FFCB7A" d="M29.285,48.307c-0.061-0.093-0.118-0.182-0.18-0.275c-0.29-0.401-0.586-0.81-0.886-1.227
			c-0.321-0.402-0.635-0.818-0.972-1.224c-0.348-0.398-0.682-0.815-1.051-1.208c-0.369-0.392-0.727-0.8-1.119-1.179l-0.579-0.578
			c-0.195-0.191-0.398-0.374-0.597-0.562c-0.793-0.751-1.632-1.452-2.467-2.13c-0.845-0.664-1.689-1.301-2.534-1.878
			c-0.837-0.588-1.676-1.112-2.472-1.604c-0.804-0.48-1.57-0.924-2.292-1.306c-1.438-0.774-2.673-1.341-3.541-1.715
			c-0.434-0.186-0.777-0.325-1.009-0.414c-0.153-0.058-0.682-0.282-1.015-0.424c-1.616,0.363-3.18,0.779-4.685,1.245
			c0.899,0.389,2.151,0.965,3.6,1.747c0.739,0.392,1.522,0.846,2.343,1.337c0.813,0.504,1.668,1.04,2.52,1.641
			c0.86,0.59,1.719,1.241,2.577,1.919c0.847,0.692,1.698,1.407,2.502,2.175c0.201,0.191,0.406,0.378,0.604,0.572l0.585,0.59
			c0.396,0.386,0.758,0.802,1.13,1.201c0.371,0.4,0.709,0.826,1.058,1.229c0.339,0.413,0.656,0.837,0.976,1.244
			c0.301,0.423,0.597,0.839,0.887,1.245c0.006,0.008,0.01,0.016,0.016,0.025c0.549,0.037,1.101,0.063,1.659,0.063
			C26.037,48.818,27.69,48.64,29.285,48.307z"/>
		<path fill="#EA9A23" d="M44.488,36.26c-0.763-0.543-1.491-1.047-2.179-1.485c-1.371-0.887-2.556-1.552-3.391-1.994
			c-0.418-0.221-0.749-0.386-0.973-0.494c-0.107-0.051-0.295-0.149-0.46-0.238c-2.214-0.403-4.512-0.707-6.875-0.903
			c0.387,0.262,0.814,0.56,1.305,0.914c0.686,0.487,1.408,1.041,2.162,1.638c0.746,0.608,1.528,1.253,2.301,1.963
			c0.781,0.699,1.555,1.459,2.323,2.245c0.757,0.799,1.514,1.621,2.218,2.488c0.176,0.217,0.358,0.428,0.53,0.648l0.259,0.338
			c1.328-1.391,2.49-2.941,3.455-4.62C44.935,36.59,44.71,36.423,44.488,36.26z"/>
		<polygon fill="#FBAD18" points="28.885,20.615 21.782,20.615 19.222,23.955 26.749,23.955 		"/>
		<path fill="#FFCB7A" d="M38.31,21.298c0-0.272-0.221-0.493-0.493-0.493c-0.272,0-0.492,0.221-0.492,0.493v0.396h0.985V21.298z"/>
		<path fill="#DC8F27" d="M24.343,29.706c0.716,0,1.429,0.01,2.139,0.029v-4.598h-7.867v4.743c0.023,0.012,0.046,0.023,0.07,0.036
			C20.546,29.78,22.434,29.706,24.343,29.706z"/>
		<polygon fill="#FFCB7A" points="32.189,23.955 30.005,21.059 28.154,23.955 		"/>
		<polygon fill="#DC8F27" points="38.312,22.877 37.322,22.877 37.322,30.777 38.312,30.989 		"/>
		<path fill="#FDBC4D" d="M27.665,29.782c1.729,0.073,3.439,0.199,5.119,0.385v-5.03h-5.119V29.782z"/>
		<path fill="#FDBC4D" d="M13.629,20.67h-2.086L9.645,31.145c1.832-0.372,3.713-0.672,5.632-0.901L13.629,20.67z"/>
	</g>
</g>
</svg>
